<svg xmlns="http://www.w3.org/2000/svg" viewBox="0 0 300 400" class="w-full h-full rounded-md bg-white p-[2px] shadow-sm border border-border"><g transform="matrix(1.02274 0 0 1.02274 286.168 -420.98)"><circle cx="-205.976" cy="485.489" r="59.759" style="opacity: 1; fill: rgb(0, 0, 0); fill-opacity: 1; fill-rule: nonzero; stroke: none; stroke-width: 8; stroke-linecap: round; stroke-linejoin: round; stroke-miterlimit: 4; stroke-dasharray: none; stroke-dashoffset: 0; stroke-opacity: 1;"></circle><circle cx="-205.976" cy="485.489" r="45.07" style="opacity: 1; fill: rgb(255, 255, 255); fill-opacity: 1; fill-rule: nonzero; stroke: none; stroke-width: 8; stroke-linecap: round; stroke-linejoin: round; stroke-miterlimit: 4; stroke-dasharray: none; stroke-dashoffset: 0; stroke-opacity: 1;"></circle><circle cx="-205.976" cy="485.489" r="38.811" style="opacity: 1; fill: rgb(0, 0, 55); fill-opacity: 1; fill-rule: nonzero; stroke: none; stroke-width: 8; stroke-linecap: round; stroke-linejoin: round; stroke-miterlimit: 4; stroke-dasharray: none; stroke-dashoffset: 0; stroke-opacity: 1;"></circle><path d="M-188.246-484.058a21.07 21.07 0 0 1-20.673 21.065 21.07 21.07 0 0 1-21.45-20.273 21.07 21.07 0 0 1 19.866-21.827 21.07 21.07 0 0 1 22.197 19.452" transform="scale(1 -1)rotate(.395)" style="opacity: 1; fill: none; fill-opacity: 0.296703; fill-rule: nonzero; stroke: rgb(255, 255, 255); stroke-width: 6.60039; stroke-linecap: round; stroke-linejoin: round; stroke-miterlimit: 4; stroke-dasharray: 13.2008, 13.2008; stroke-dashoffset: 0; stroke-opacity: 1;"></path><circle cx="-205.976" cy="485.489" r="7.853" style="opacity: 1; fill: rgb(255, 255, 255); fill-opacity: 1; fill-rule: nonzero; stroke: none; stroke-width: 8; stroke-linecap: round; stroke-linejoin: round; stroke-miterlimit: 4; stroke-dasharray: none; stroke-dashoffset: 0; stroke-opacity: 1;"></circle><circle cx="-205.976" cy="485.489" r="3.586" style="opacity: 1; fill: rgb(0, 0, 55); fill-opacity: 1; fill-rule: nonzero; stroke: none; stroke-width: 8; stroke-linecap: round; stroke-linejoin: round; stroke-miterlimit: 4; stroke-dasharray: none; stroke-dashoffset: 0; stroke-opacity: 1;"></circle></g><g transform="matrix(1.02274 0 0 1.02274 360.65 -296.573)"><circle cx="-205.976" cy="485.489" r="59.759" style="opacity: 1; fill: rgb(0, 0, 0); fill-opacity: 1; fill-rule: nonzero; stroke: none; stroke-width: 8; stroke-linecap: round; stroke-linejoin: round; stroke-miterlimit: 4; stroke-dasharray: none; stroke-dashoffset: 0; stroke-opacity: 1;"></circle><circle cx="-205.976" cy="485.489" r="45.07" style="opacity: 1; fill: rgb(255, 255, 255); fill-opacity: 1; fill-rule: nonzero; stroke: none; stroke-width: 8; stroke-linecap: round; stroke-linejoin: round; stroke-miterlimit: 4; stroke-dasharray: none; stroke-dashoffset: 0; stroke-opacity: 1;"></circle><circle cx="-205.976" cy="485.489" r="38.811" style="opacity: 1; fill: rgb(185, 60, 60); fill-opacity: 1; fill-rule: nonzero; stroke: none; stroke-width: 8; stroke-linecap: round; stroke-linejoin: round; stroke-miterlimit: 4; stroke-dasharray: none; stroke-dashoffset: 0; stroke-opacity: 1;"></circle><path d="M-188.246-484.058a21.07 21.07 0 0 1-20.673 21.065 21.07 21.07 0 0 1-21.45-20.273 21.07 21.07 0 0 1 19.866-21.827 21.07 21.07 0 0 1 22.197 19.452" transform="scale(1 -1)rotate(.395)" style="opacity: 1; fill: none; fill-opacity: 0.296703; fill-rule: nonzero; stroke: rgb(255, 255, 255); stroke-width: 6.60039; stroke-linecap: round; stroke-linejoin: round; stroke-miterlimit: 4; stroke-dasharray: 13.2008, 13.2008; stroke-dashoffset: 0; stroke-opacity: 1;"></path><circle cx="-205.976" cy="485.489" r="7.853" style="opacity: 1; fill: rgb(255, 255, 255); fill-opacity: 1; fill-rule: nonzero; stroke: none; stroke-width: 8; stroke-linecap: round; stroke-linejoin: round; stroke-miterlimit: 4; stroke-dasharray: none; stroke-dashoffset: 0; stroke-opacity: 1;"></circle><circle cx="-205.976" cy="485.489" r="3.586" style="opacity: 1; fill: rgb(185, 60, 60); fill-opacity: 1; fill-rule: nonzero; stroke: none; stroke-width: 8; stroke-linecap: round; stroke-linejoin: round; stroke-miterlimit: 4; stroke-dasharray: none; stroke-dashoffset: 0; stroke-opacity: 1;"></circle></g><g transform="matrix(1.02274 0 0 1.02274 435.137 -172.042)"><circle cx="-205.976" cy="485.489" r="59.759" style="opacity: 1; fill: rgb(0, 0, 0); fill-opacity: 1; fill-rule: nonzero; stroke: none; stroke-width: 8; stroke-linecap: round; stroke-linejoin: round; stroke-miterlimit: 4; stroke-dasharray: none; stroke-dashoffset: 0; stroke-opacity: 1;"></circle><circle cx="-205.976" cy="485.489" r="45.07" style="opacity: 1; fill: rgb(255, 255, 255); fill-opacity: 1; fill-rule: nonzero; stroke: none; stroke-width: 8; stroke-linecap: round; stroke-linejoin: round; stroke-miterlimit: 4; stroke-dasharray: none; stroke-dashoffset: 0; stroke-opacity: 1;"></circle><circle cx="-205.976" cy="485.489" r="38.811" style="opacity: 1; fill: rgb(0, 0, 55); fill-opacity: 1; fill-rule: nonzero; stroke: none; stroke-width: 8; stroke-linecap: round; stroke-linejoin: round; stroke-miterlimit: 4; stroke-dasharray: none; stroke-dashoffset: 0; stroke-opacity: 1;"></circle><path d="M-188.246-484.058a21.07 21.07 0 0 1-20.673 21.065 21.07 21.07 0 0 1-21.45-20.273 21.07 21.07 0 0 1 19.866-21.827 21.07 21.07 0 0 1 22.197 19.452" transform="scale(1 -1)rotate(.395)" style="opacity: 1; fill: none; fill-opacity: 0.296703; fill-rule: nonzero; stroke: rgb(255, 255, 255); stroke-width: 6.60039; stroke-linecap: round; stroke-linejoin: round; stroke-miterlimit: 4; stroke-dasharray: 13.2008, 13.2008; stroke-dashoffset: 0; stroke-opacity: 1;"></path><circle cx="-205.976" cy="485.489" r="7.853" style="opacity: 1; fill: rgb(255, 255, 255); fill-opacity: 1; fill-rule: nonzero; stroke: none; stroke-width: 8; stroke-linecap: round; stroke-linejoin: round; stroke-miterlimit: 4; stroke-dasharray: none; stroke-dashoffset: 0; stroke-opacity: 1;"></circle><circle cx="-205.976" cy="485.489" r="3.586" style="opacity: 1; fill: rgb(0, 0, 55); fill-opacity: 1; fill-rule: nonzero; stroke: none; stroke-width: 8; stroke-linecap: round; stroke-linejoin: round; stroke-miterlimit: 4; stroke-dasharray: none; stroke-dashoffset: 0; stroke-opacity: 1;"></circle></g></svg>