<svg xmlns="http://www.w3.org/2000/svg" xmlns:xlink="http://www.w3.org/1999/xlink" width="300" height="400" viewBox="0 0 300 400" class="w-full h-full rounded-md bg-white p-[2px] shadow-sm border border-border"><g transform="translate(512.082 -162.704)scale(.76584)"><circle cx="-472.783" cy="341.256" r="107.567" style="opacity: 1; fill: rgb(255, 255, 255); fill-opacity: 1; fill-rule: nonzero; stroke: rgb(0, 0, 0); stroke-width: 17.2171; stroke-linecap: butt; stroke-linejoin: round; stroke-miterlimit: 4; stroke-dasharray: none; stroke-dashoffset: 0; stroke-opacity: 1;"></circle><circle cx="-472.783" cy="341.627" r="87.813" style="opacity: 1; fill: rgb(0, 0, 55); fill-opacity: 1; fill-rule: nonzero; stroke: none; stroke-width: 0; stroke-linecap: butt; stroke-linejoin: round; stroke-miterlimit: 4; stroke-dasharray: none; stroke-dashoffset: 0; stroke-opacity: 0;"></circle><path d="M-93.33-74.125a163.92 163.92 0 0 1-224.594-13.082 163.92 163.92 0 0 1 0-224.975A163.92 163.92 0 0 1-93.33-325.263" mask="none" transform="matrix(.10477 0 0 .08588 -506.329 359.108)" id="pin2a" style="opacity: 1; fill: none; fill-opacity: 1; fill-rule: nonzero; stroke: rgb(255, 255, 255); stroke-width: 125.71; stroke-linecap: round; stroke-linejoin: round; stroke-miterlimit: 4; stroke-dasharray: none; stroke-dashoffset: 0; stroke-opacity: 1;"></path><use x="0" y="0" xlink:href="#pin2a" id="pin2b" transform="rotate(-60 -472.858 342.066)" width="100%" height="100%"></use><use x="0" y="0" xlink:href="#pin2b" id="pin2c" transform="rotate(-60 -473.886 342.721)" width="100%" height="100%"></use><use x="0" y="0" xlink:href="#pin2c" id="pin2d" transform="rotate(-60 -473.886 342.721)" width="100%" height="100%"></use><use x="0" y="0" xlink:href="#pin2d" id="pin2e" transform="rotate(-60 -473.886 342.721)" width="100%" height="100%"></use><use xlink:href="#pin2e" transform="rotate(-60 -473.886 342.721)" width="100%" height="100%"></use><circle cx="-472.931" cy="341.516" r="18.188" style="opacity: 1; fill: none; fill-opacity: 1; fill-rule: nonzero; stroke: rgb(255, 255, 255); stroke-width: 12.2858; stroke-linecap: butt; stroke-linejoin: round; stroke-miterlimit: 4; stroke-dasharray: none; stroke-dashoffset: 0; stroke-opacity: 1;"></circle></g><g transform="translate(512.082 39.796)scale(.76584)"><circle r="107.567" cy="341.256" cx="-472.783" style="opacity: 1; fill: rgb(255, 255, 255); fill-opacity: 1; fill-rule: nonzero; stroke: rgb(0, 0, 0); stroke-width: 17.2171; stroke-linecap: butt; stroke-linejoin: round; stroke-miterlimit: 4; stroke-dasharray: none; stroke-dashoffset: 0; stroke-opacity: 1;"></circle><circle r="87.813" cy="341.627" cx="-472.783" style="opacity: 1; fill: rgb(0, 0, 55); fill-opacity: 1; fill-rule: nonzero; stroke: none; stroke-width: 0; stroke-linecap: butt; stroke-linejoin: round; stroke-miterlimit: 4; stroke-dasharray: none; stroke-dashoffset: 0; stroke-opacity: 0;"></circle><path d="M-93.33-74.125a163.92 163.92 0 0 1-224.594-13.082 163.92 163.92 0 0 1 0-224.975A163.92 163.92 0 0 1-93.33-325.263" transform="matrix(.10477 0 0 .08588 -506.329 359.108)" style="opacity: 1; fill: none; fill-opacity: 1; fill-rule: nonzero; stroke: rgb(255, 255, 255); stroke-width: 125.71; stroke-linecap: round; stroke-linejoin: round; stroke-miterlimit: 4; stroke-dasharray: none; stroke-dashoffset: 0; stroke-opacity: 1;"></path><use height="100%" width="100%" transform="rotate(-60 -472.858 342.066)" xlink:href="#pin2a"></use><use height="100%" width="100%" transform="rotate(-60 -473.886 342.721)" xlink:href="#pin2b"></use><use height="100%" width="100%" transform="rotate(-60 -473.886 342.721)" xlink:href="#pin2c"></use><use height="100%" width="100%" transform="rotate(-60 -473.886 342.721)" xlink:href="#pin2d"></use><use height="100%" width="100%" transform="rotate(-60 -473.886 342.721)" xlink:href="#pin2e"></use><circle r="18.188" cy="341.516" cx="-472.931" style="opacity: 1; fill: none; fill-opacity: 1; fill-rule: nonzero; stroke: rgb(255, 255, 255); stroke-width: 12.2858; stroke-linecap: butt; stroke-linejoin: round; stroke-miterlimit: 4; stroke-dasharray: none; stroke-dashoffset: 0; stroke-opacity: 1;"></circle></g></svg>