<svg xmlns="http://www.w3.org/2000/svg" xmlns:xlink="http://www.w3.org/1999/xlink" viewBox="0 0 300 400" class="w-full h-full rounded-md bg-white p-[2px] shadow-sm border border-border"><g transform="matrix(.89332 0 0 .89332 -207.387 -311.331)"><circle cx="400" cy="572.362" r="160" style="opacity: 1; fill: rgb(255, 255, 255); fill-opacity: 1; fill-rule: nonzero; stroke: rgb(0, 0, 0); stroke-width: 10.033; stroke-linecap: butt; stroke-linejoin: round; stroke-miterlimit: 4; stroke-dasharray: none; stroke-dashoffset: 0; stroke-opacity: 1;"></circle><circle cx="400" cy="572.362" r="145" style="opacity: 1; fill: rgb(0, 0, 55); fill-opacity: 1; fill-rule: nonzero; stroke: rgb(0, 0, 55); stroke-width: 10.033; stroke-linecap: butt; stroke-linejoin: round; stroke-miterlimit: 4; stroke-dasharray: none; stroke-dashoffset: 0; stroke-opacity: 1;"></circle><g transform="translate(.354)"><path id="a" d="M392.327 496.48c-8.272-82.935 24.083-82.938 15.288 0" style="fill: none; fill-rule: evenodd; stroke: rgb(255, 255, 255); stroke-width: 8.95532; stroke-linecap: round; stroke-linejoin: miter; stroke-miterlimit: 4; stroke-dasharray: none; stroke-opacity: 1;"></path><g transform="translate(-31 -64.5)"><use xlink:href="#a" transform="rotate(20 230.025 691.537)"></use><use xlink:href="#a" transform="rotate(40 325.532 646.348)"></use><use xlink:href="#a" transform="rotate(60 358.702 630.653)"></use><use xlink:href="#a" transform="rotate(80 376.35 622.303)"></use><use xlink:href="#a" transform="rotate(100 387.87 616.852)"></use><use xlink:href="#a" transform="rotate(120 396.42 612.807)"></use><use xlink:href="#a" transform="rotate(140 403.39 609.509)"></use><use xlink:href="#a" transform="rotate(160 409.52 606.608)"></use><use xlink:href="#a" transform="rotate(180 415.28 603.883)"></use><use xlink:href="#a" transform="rotate(-160 421.04 601.158)"></use><use xlink:href="#a" transform="rotate(-140 427.17 598.258)"></use><use xlink:href="#a" transform="rotate(-120 434.14 594.96)"></use><use xlink:href="#a" transform="rotate(-100 442.69 590.914)"></use><use xlink:href="#a" transform="rotate(-80 454.21 585.464)"></use><use xlink:href="#a" transform="rotate(-60 471.859 577.113)"></use><use xlink:href="#a" transform="rotate(-40 505.028 561.419)"></use><use xlink:href="#a" transform="rotate(-20 600.536 516.23)"></use></g></g><circle cx="400" cy="572.362" r="84.474" style="opacity: 1; fill: rgb(255, 255, 255); fill-opacity: 1; fill-rule: nonzero; stroke: rgb(0, 0, 55); stroke-width: 10.24; stroke-linecap: butt; stroke-linejoin: round; stroke-miterlimit: 4; stroke-dasharray: none; stroke-dashoffset: 0; stroke-opacity: 1;"></circle><circle cx="400" cy="572.362" r="72.315" style="opacity: 1; fill: rgb(185, 60, 60); fill-opacity: 1; fill-rule: nonzero; stroke: none; stroke-width: 12; stroke-linecap: round; stroke-linejoin: round; stroke-miterlimit: 4; stroke-dasharray: none; stroke-dashoffset: 0; stroke-opacity: 1;"></circle><g id="c" transform="translate(-.177 .088)"><path d="M401.332 554.245c-3.146-9.94-29.568-32.568-1.223-34.015 29.37 1.6.872 23.529-1.718 34.178" style="fill: none; fill-rule: evenodd; stroke: rgb(255, 255, 255); stroke-width: 23.1097; stroke-linecap: butt; stroke-linejoin: miter; stroke-miterlimit: 4; stroke-dasharray: none; stroke-opacity: 1;"></path><path d="M400 555.191v-25.657" style="fill: none; fill-rule: evenodd; stroke: rgb(185, 60, 60); stroke-width: 6; stroke-linecap: round; stroke-linejoin: round; stroke-miterlimit: 4; stroke-dasharray: none; stroke-opacity: 1;"></path><circle cx="400" cy="527.834" r="4.819" style="opacity: 1; fill: rgb(185, 60, 60); fill-opacity: 1; fill-rule: nonzero; stroke: none; stroke-width: 3; stroke-linecap: round; stroke-linejoin: round; stroke-miterlimit: 4; stroke-dasharray: none; stroke-dashoffset: 0; stroke-opacity: 1;"></circle><path id="b" d="m404.688 557.487 6.565-16.11" style="fill: none; fill-rule: evenodd; stroke: rgb(185, 60, 60); stroke-width: 4; stroke-linecap: round; stroke-linejoin: miter; stroke-miterlimit: 4; stroke-dasharray: none; stroke-opacity: 1;"></path><use xlink:href="#b" transform="matrix(-1 0 0 1 799.938 0)"></use></g><circle cx="400" cy="572.362" r="16.035" style="opacity: 1; fill: rgb(255, 255, 255); fill-opacity: 1; fill-rule: nonzero; stroke: rgb(185, 60, 60); stroke-width: 6.66958; stroke-linecap: round; stroke-linejoin: round; stroke-miterlimit: 4; stroke-dasharray: none; stroke-dashoffset: 0; stroke-opacity: 1;"></circle><circle cx="400" cy="572.362" r="8.537" style="opacity: 1; fill: rgb(185, 60, 60); fill-opacity: 1; fill-rule: nonzero; stroke: none; stroke-width: 6; stroke-linecap: round; stroke-linejoin: round; stroke-miterlimit: 4; stroke-dasharray: none; stroke-dashoffset: 0; stroke-opacity: 1;"></circle><use xlink:href="#c" id="d" x="0" y="0" transform="rotate(-72 399.973 572.358)"></use><use xlink:href="#d" id="e" x="0" y="0" transform="rotate(-72 399.973 572.358)"></use><use xlink:href="#e" id="f" x="0" y="0" transform="rotate(-72 399.973 572.358)"></use><use xlink:href="#f" transform="rotate(-72 399.973 572.358)"></use></g></svg>